<?xml version="1.0" encoding="utf-8"?>
<!-- Generator: Adobe Illustrator 21.1.0, SVG Export Plug-In . SVG Version: 6.00 Build 0)  -->
<svg version="1.1" id="Calque_1" 
	xmlns="http://www.w3.org/2000/svg" 
	xmlns:xlink="http://www.w3.org/1999/xlink" x="0px" y="0px" viewBox="0 0 432 432" style="enable-background:new 0 0 432 432;" xml:space="preserve">
	<style type="text/css">
	.st0{fill:#BE1622;}
	.st1{fill:#C69C6C;}
	.st2{fill:#F39200;}
	.st3{fill:#F9B03D;}
	.st4{fill:#5BA7AD;}
	.st5{fill:#3F7579;}
	.st6{fill:#1B1B1B;}
	.st7{fill:#FFFFFF;}
	.st8{fill:#D8B6C4;}
	.st9{fill:#765844;}
	.st10{fill:#E9B2C5;}
	.st11{fill:#C7B29A;}
	.st12{fill:#EDBD7D;}
	.st13{fill:#1D71B8;}
	.st14{fill:#95C11F;}
	.st15{fill:#E94E1B;}
	.st16{fill:#575756;}
	.st17{fill:#844C16;}
	.st18{fill:#E50071;}
	.st19{fill:#AF175D;}
	.st20{fill:#E4051E;}
	.st21{fill:#13110C;}
	.st22{fill:#891A2C;}
	.st23{fill:#28295F;}
	.st24{fill:#CECFBC;}
	.st25{fill:#981F24;}
	.st26{fill:#020203;}
	.st27{fill:#BC2333;}
	.st28{fill:#AD1917;}
	.st29{fill:#04683B;}
	.st30{fill:#049348;}
	.st31{fill:#2D3D8D;}
	.st32{fill:#F39233;}
	.st33{fill:#EB5C35;}
	.st34{fill:#AA1917;}
	.st35{fill:#55514F;}
	.st36{fill:#20376D;}
	.st37{fill:#B3BBC5;}
	.st38{fill:#BAC6BC;}
	.st39{fill:#B4BA8C;}
	.st40{fill:#746458;}
	.st41{fill:#343434;}
	.st42{fill:#CEC3BC;}
	.st43{fill:#FBBA0E;}
	.st44{fill:#FED98D;}
	.st45{fill:#676767;}
	.st46{fill:#8DBE22;}
	.st47{fill:#D0E1A4;}
	.st48{fill:#EFE8E4;}
	.st49{fill:#754695;}
	.st50{fill:#A78BC0;}
	.st51{fill:#8EC045;}
	.st52{fill:#0D71B9;}
	.st53{fill:#EAC686;}
	.st54{fill:#D24063;}
	.st55{fill:#E2A11A;}
	.st56{fill:#E9BD71;}
	.st57{fill:#E8423E;}
	.st58{fill:#F8AE4C;}
	.st59{fill:#00A19A;}
	.st60{fill:#2578B9;}
	.st61{fill:#A29F9D;}
	.st62{fill:#D2B89A;}
	.st63{fill:#E6C2A9;}
	.st64{fill:#6E3B11;}
	.st65{fill:#9B6228;}
	.st66{fill:#C9A1CB;}
	.st67{fill:#F8AB00;}
	.st68{fill:#BEBBBB;}
	.st69{fill:#066938;}
	.st70{fill:#36A36A;}
	.st71{fill:#4F702A;}
	.st72{fill:#A4191E;}
	.st73{fill:#3AAA35;}
	.st74{fill:#D01419;}
	.st75{fill:#CA1527;}
	.st76{fill:#684A40;}
	.st77{fill:#9A7B65;}
	.st78{fill:#FBB700;}
	.st79{fill:#82BB26;}
	.st80{fill:#00A8E4;}
	.st81{fill:#CEA57B;}
	.st82{fill:#57B031;}
	.st83{fill:#E5251F;}
	.st84{fill:#EFDD37;}
	.st85{fill:#59C4E9;}
	.st86{fill:#F08017;}
	.st87{fill:#974393;}
	.st88{fill:#F9EA31;}
	.st89{fill:#C1292E;}
	.st90{fill:#F2D77E;}
	.st91{fill:#E6332A;}
	.st92{fill:#29235C;}
	.st93{fill:#3C3C3B;}
	.st94{fill:#2FAC66;}
	.st95{fill:#2D2E83;}
	.st96{fill:#645B51;}
	.st97{fill:#36A9E1;}
	.st98{fill:#312783;}
	.st99{fill:#2E4959;}
	.st100{fill:#5F8699;}
	.st101{fill:#172B35;}
	.st102{fill:#C3D5E4;}
	.st103{fill:#7B9135;}
	.st104{fill:#E59546;}
	.st105{fill:#B2C65F;}
	.st106{fill:#85BBB7;}
	.st107{fill:#F39323;}
	.st108{fill:#FFFFFE;}
	.st109{fill:#EFD2AC;}
	.st110{fill:#C0E0EF;}
	.st111{fill:#EFDAEC;}
	.st112{fill:#63B8A4;}
	.st113{fill:#BDCCD4;}
	.st114{fill:#8C633A;}
	.st115{fill:#CA9E67;}
	.st116{fill:#7D4E24;}
	.st117{fill:#B8B569;}
	.st118{fill:#E8C515;}
	.st119{fill:#A5A258;}
	.st120{fill:#AA884D;}
	.st121{fill:#9E994B;}
	.st122{fill:#D1A479;}
	.st123{fill:#936037;}
	.st124{fill:#FAFAFA;}
	.st125{fill:#98CDC5;}
	.st126{fill:#E1EBE8;}
	.st127{fill:#DDCE9E;}
	.st128{fill:#A67D52;}
	.st129{fill:#437156;}
	.st130{fill:#4F8366;}
	.st131{fill:#8F6947;}
	.st132{fill:#856143;}
	.st133{fill:#171512;}
	.st134{fill:#AA191B;}
	.st135{fill:#1C1A38;}
	.st136{fill:#8E8C38;}
	.st137{fill:#CAC955;}
	.st138{fill:#6C6A29;}
	.st139{fill:#D8D564;}
	.st140{fill:#5CABD5;}
	.st141{fill:#70B4D9;}
	.st142{fill:#9A9999;}
	.st143{fill:#B4B4B4;}
	.st144{fill:#ABAA3D;}
	.st145{fill:#D7DB2F;}
	.st146{fill:#B8CED8;}
	.st147{fill:#05AB9E;}
	.st148{fill:#DAB828;}
	.st149{fill:#EB7533;}
	.st150{fill:#EDE4CA;}
	.st151{fill:#575452;}
	.st152{fill:#F9F6F4;}
	.st153{fill:#94B2AA;}
	.st154{fill:#D8D7C4;}
	.st155{fill:#BAD68E;}
	.st156{fill:#F0E6E1;}
	.st157{fill:#BFD786;}
	.st158{fill:#E9E499;}
	.st159{fill:#A2D3C2;}
	.st160{fill:#EB7976;}
	.st161{fill:#EEF4E7;}
	.st162{fill:#EADA7F;}
	.st163{fill:#B2D9C2;}
	.st164{fill:#43B284;}
	.st165{fill:#9AC028;}
	.st166{fill:#D8AD80;}
	.st167{fill:#F2F2F2;}
	.st168{fill:#767574;}
	.st169{fill:#CDC8C6;}
	.st170{fill:#634E42;}
	.st171{fill:#E4E0DF;}
	.st172{fill:#D98F53;}
	.st173{fill:#E2CAB5;}
	.st174{fill:#B61824;}
	.st175{fill:#E2BAA0;}
	.st176{fill:#CF455A;}
	.st177{fill:#648546;}
	.st178{fill:#4F6834;}
	.st179{fill:#91BB64;}
	.st180{fill:#D1CE4D;}
	.st181{fill:#CFCE67;}
	.st182{fill:#E5E4BD;}
	.st183{fill:#A69F28;}
	.st184{fill:#E3BF32;}
	.st185{fill:#E68024;}
	.st186{fill:#D27444;}
	.st187{fill:#D1B05A;}
	.st188{fill:#F4E3BD;}
	.st189{fill:#668852;}
	.st190{fill:#A3C18F;}
	.st191{fill:#D8B41E;}
	.st192{fill:#E2DBBA;}
	.st193{fill:#603914;}
	.st194{fill:#CF1042;}
	.st195{fill:#2F8A7F;}
	.st196{fill:#D19A69;}
	.st197{fill:#E9C3A4;}
	.st198{fill:#F2BF21;}
	.st199{fill:#CFD3D1;}
	.st200{fill:#E9F2ED;}
	.st201{fill:#4E4D4D;}
	.st202{fill:#C4E2D0;}
	.st203{fill:#F3F3F3;}
	.st204{fill:#F8FAF9;}
	.st205{fill:#C6B5A8;}
	.st206{fill:#F2F1E7;}
	.st207{fill:#CEC87B;}
	.st208{fill:#C7E4E5;}
	.st209{fill:#D4894A;}
	.st210{fill:#FBFDFA;}
	.st211{fill:#B4CD5F;}
	.st212{fill:#1F1B15;}
	.st213{fill:#161210;}
	.st214{fill:#A8D1D2;}
	.st215{fill:#8E6640;}
	.st216{fill:#B22518;}
	.st217{fill:#683F1D;}
	.st218{fill:#F0F7F7;}
	.st219{fill:#CD924B;}
	.st220{fill:#CDCCCC;}
	.st221{fill:#F2D7C0;}
	.st222{fill:#B21924;}
	.st223{fill:#EDCEB1;}
	.st224{fill:#7D552C;}
	.st225{fill:#A0BC6F;}
	.st226{fill:#94AD65;}
	.st227{fill:#E7E6E6;}
	.st228{fill:#9FD6DB;}
	.st229{fill:#EACD7F;}
	.st230{fill:#E28C52;}
	.st231{fill:#141414;}
	.st232{fill:#E97E28;}
	.st233{fill:#D0C657;}
	.st234{fill:#F3BC95;}
	.st235{fill:#FBFDFC;}
	.st236{fill:#CA252F;}
	.st237{fill:#B8B6B7;}
	.st238{fill:#808181;}
	.st239{fill:#F7F5DB;}
	.st240{fill:#CA1618;}
	.st241{fill:#FDC30B;}
	.st242{fill:#5F3917;}
	.st243{fill:#FFDA36;}
	.st244{fill:#AB7049;}
	.st245{fill:#619DCF;}
	.st246{fill:#45779A;}
	.st247{fill:#68AFA1;}
	.st248{fill:#108E77;}
	.st249{fill:#A5779F;}
	.st250{fill:#008D36;}
	.st251{fill:#E83E49;}
	.st252{fill:#A12D38;}
	.st253{fill-rule:evenodd;clip-rule:evenodd;fill:#677124;}
	</style>
	<g>
		<g>
			<path class="st178" d="M286.4,250.1c-6-0.7-11.9-1.2-17.8,0.1c-0.1,0-0.2,0.1-0.3,0.1c-6.1,1.7-11.5,5.4-15.1,10.7
			c-1.3,1.9-3.6,5.4-3.5,7.8c0.1,1.3,1.1,3,1.5,4.2c1.6,4.2,1.9,7.4,6.3,9.3c2.1,0.9,4.4,1.3,6.5,0.1c2-1.2,1.9-2.7,2.4-4.4
			c6.1,3.3,12.6-2.9,10-9c2.5-0.4,4.6-1.7,6.2-3.8c2.9-3.8,1.8-9.2,4.6-12.8C288.1,251.5,287.6,250.3,286.4,250.1z"/>
			<path class="st178" d="M195.4,250.1c6-0.7,11.9-1.2,17.8,0.1c0.1,0,0.2,0.1,0.3,0.1c6.1,1.7,11.5,5.4,15.1,10.7
			c1.3,1.9,3.6,5.4,3.5,7.8c-0.1,1.3-1.1,3-1.5,4.2c-1.6,4.2-1.9,7.4-6.3,9.3c-2.1,0.9-4.4,1.3-6.5,0.1c-2-1.2-1.9-2.7-2.4-4.4
			c-6.1,3.3-12.6-2.9-10-9c-2.5-0.4-4.6-1.7-6.2-3.8c-2.9-3.8-1.8-9.2-4.6-12.8C193.7,251.5,194.2,250.3,195.4,250.1z"/>
		</g>
		<path class="st179" d="M252.4,233.2c34.7-20.4,53.4-63.4,15.8-88.8c-14.1-9.5-23.8-2.2-32.5-25.9c-24.8-67.5-113.7-32.6-71.2,46
		c-10.9,14.4-16.3,41.2-3.5,55.7c18.1,20.6,40.4,26.6,61.3,23.7c2,29.4-9.7,50.3-16.9,71c-0.2-0.1-0.5-0.1-0.8-0.1
		c-35.3,5.9-49.8-61.2-27.5-51c6.3,2.9,11.7,12.3,9.2,19.4c-1.6,4.5-6.2,3-6.7,1.8c-1-2.8,4.1-0.5,4.4-2.8c1-6.7-7.4-9.6-11.7-4.8
		c-6.1,6.9,0.3,16.7,8.2,17.8c11.9,1.7,27.5-14.8,12.6-34.2c-48.5-62.9-85,72.4,5.8,88.2c0.1,0,0.2,0,0.3,0
		c0.8,12.9,5.1,20.7,17.8,16.9c16.4-4.8,6.9-20.7,13.6-27.7c5.3-5.6,10.7,1.6,12.1,6.2c3.2,10.5,0.5,18.6,9.5,20.3
		C287.3,371.6,281.1,338.8,252.4,233.2z"/>
		<g>
			<g>
				<path class="st178" d="M165.8,209c37.6,3.8,86,5.8,108-31.8c1.1-1.8-1.8-3.5-2.8-1.6c-21.4,36.5-68.9,33.9-105.2,30.2
				C163.7,205.6,163.8,208.8,165.8,209L165.8,209z"/>
			</g>
			<g>

				<ellipse transform="matrix(0.9711 -0.2386 0.2386 0.9711 -31.4745 48.9128)" class="st41" cx="186.3" cy="154.4" rx="14.6" ry="16.9"/>
				<g>
					<path class="st124" d="M184.4,146c-6.8,0-6.8,10.5,0,10.5C191.2,156.5,191.2,146,184.4,146z"/>
					<path class="st124" d="M195.2,158.8c-0.5-0.8-1.2-1.4-2.1-1.7c-0.6-0.2-1.1-0.2-1.6-0.1c-0.4,0-0.8,0.1-1.1,0.4
					c-0.2,0.1-0.4,0.2-0.5,0.4c-1.1,1-1.5,2.6-0.9,4.1c0.8,1.9,3.1,2.6,4.8,1.6C195.4,162.6,196.1,160.5,195.2,158.8z"/>
				</g>
			</g>
			<g>

				<ellipse transform="matrix(0.9225 -0.3861 0.3861 0.9225 -37.8471 97.2381)" class="st41" cx="223.2" cy="142.8" rx="14.6" ry="16.9"/>
				<g>
					<path class="st124" d="M219.6,134.9c5.5-4,11.7,4.4,6.3,8.5C220.4,147.5,214.1,139,219.6,134.9z"/>
					<path class="st124" d="M218.6,151.6c-0.1-0.9,0.1-1.9,0.7-2.6c0.3-0.5,0.8-0.8,1.3-1c0.3-0.2,0.7-0.4,1.1-0.4c0.2,0,0.4,0,0.7,0
					c1.5,0.2,2.8,1.2,3.1,2.7c0.5,2-0.9,3.9-2.9,4.2C220.7,154.8,218.8,153.6,218.6,151.6z"/>
				</g>
			</g>
			<g>
				<path class="st178" d="M215.1,121.3c3.1-1.4,7.1,0.8,10.3,1.2c2.1,0.3,2.1-3,0-3.3c-4.2-0.5-7.8-2.6-12-0.7
				C211.5,119.3,213.2,122.1,215.1,121.3L215.1,121.3z"/>
			</g>
			<g>
				<path class="st178" d="M172.7,130.9c-3,1.8-5.3,4.4-6.7,7.6c-0.8,1.9,2,3.6,2.8,1.6c1.2-2.7,3-4.9,5.5-6.4
				C176.1,132.7,174.5,129.8,172.7,130.9L172.7,130.9z"/>
			</g>
			<path class="st180" d="M194.1,86.4c-3.9-2.9-8.5-6.6-12.7-9.7c-5.6-4.1-11.3-9-17.7-11.8c-0.9-0.4-2,0.3-1.7,1.3
			c1.5,5.6,2.1,11.5,2.5,17.3c0.4,5.7,0.8,11.7-0.3,17.3c-0.2,1.1,0.9,1.7,1.7,1.3c0.1,0,0.3,0,0.4,0c4.5-0.8,7.5-3.5,10.7-6.6
			c4.8-4.6,9.7-6.9,16.4-6.9C194.8,88.6,195,87.1,194.1,86.4z"/>
		</g>
		<g>
			<path class="st180" d="M250.5,268.4c-3.7-11.7-5.9-31.3-9.8-30.4c-1.9,0.4-12.4,3-12.4,5c-1.4,2.4,4-0.4-5.1,35.6
			c-2.3,9.1-6.6,18.5-7.6,27.8c-1.7,15.3,14.9,23.7,28.3,22c6.3-0.8,13-3.9,15.4-10.1C265.7,302.4,255.2,283,250.5,268.4z"/>
			<g>
				<g>
					<path class="st178" d="M231.8,256.9c4.5,0.3,10,0.5,14.1-1.6c1.9-0.9,0.2-3.8-1.6-2.8c-3.5,1.7-8.7,1.4-12.5,1.2
					C229.7,253.5,229.7,256.8,231.8,256.9L231.8,256.9z"/>
				</g>
				<g>
					<path class="st178" d="M228.7,270.2c6.5,0.7,12.8,1.1,18.9-1.6c1.9-0.8,0.3-3.6-1.6-2.8c-5.5,2.4-11.5,1.8-17.3,1.1
					C226.6,266.7,226.6,270,228.7,270.2L228.7,270.2z"/>
				</g>
				<g>
					<path class="st178" d="M224.5,284.7c8.3,2.3,19.2,3.7,27.2-0.3c1.9-0.9,0.2-3.8-1.6-2.8c-7.1,3.6-17.4,2-24.7,0
					C223.4,281,222.5,284.1,224.5,284.7L224.5,284.7z"/>
				</g>
				<g>
					<path class="st178" d="M220.1,297.6c12.3,5.1,25.6,5.3,38.1,0.9c2-0.7,1.1-3.9-0.9-3.1c-12,4.3-24.6,4-36.4-0.9
					C219,293.7,218.2,296.8,220.1,297.6L220.1,297.6z"/>
				</g>
				<g>
					<path class="st178" d="M217.4,312c6.9,2.3,14.1,3.9,21.3,4.3c7.2,0.4,13.5-1.3,20.2-3.9c1.8-0.7,1-3.7-0.8-3
					c-6.4,2.4-12.5,4.2-19.4,3.8c-7-0.4-13.9-2-20.5-4.2C216.3,308.4,215.5,311.4,217.4,312L217.4,312z"/>
				</g>
			</g>
		</g>
	</g>
</svg>
